<svg xmlns="http://www.w3.org/2000/svg" width="1920" height="1080" viewBox="0 0 1920 1080" role="img" aria-labelledby="title desc">
  <title id="title">MotorSignal video thumbnail</title>
  <desc id="desc">A dark green MotorSignal thumbnail showing a hand landmark constellation and the text Your movement. Your data.</desc>
  <defs>
    <linearGradient id="bg" x1="0" y1="0" x2="1" y2="1">
      <stop offset="0" stop-color="#0d2c25"/>
      <stop offset=".56" stop-color="#173d33"/>
      <stop offset="1" stop-color="#254c40"/>
    </linearGradient>
    <radialGradient id="glow" cx="76%" cy="45%" r="53%">
      <stop offset="0" stop-color="#9ae8ca" stop-opacity=".28"/>
      <stop offset=".55" stop-color="#4fbc91" stop-opacity=".10"/>
      <stop offset="1" stop-color="#163a30" stop-opacity="0"/>
    </radialGradient>
    <linearGradient id="wave" x1="0" y1="0" x2="1" y2="0">
      <stop offset="0" stop-color="#ef765f" stop-opacity="0"/>
      <stop offset=".2" stop-color="#ef765f"/>
      <stop offset=".78" stop-color="#f4a183"/>
      <stop offset="1" stop-color="#ef765f" stop-opacity="0"/>
    </linearGradient>
    <filter id="soft" x="-30%" y="-30%" width="160%" height="160%"><feGaussianBlur stdDeviation="22"/></filter>
    <filter id="shadow" x="-20%" y="-20%" width="140%" height="140%"><feDropShadow dx="0" dy="20" stdDeviation="20" flood-color="#061812" flood-opacity=".4"/></filter>
    <pattern id="dots" width="38" height="38" patternUnits="userSpaceOnUse"><circle cx="2" cy="2" r="1.2" fill="#b4e6d1" opacity=".14"/></pattern>
  </defs>

  <rect width="1920" height="1080" fill="url(#bg)"/>
  <rect width="1920" height="1080" fill="url(#dots)"/>
  <rect x="950" width="970" height="1080" fill="url(#glow)"/>
  <ellipse cx="1550" cy="500" rx="340" ry="430" fill="#6bd4a8" opacity=".14" filter="url(#soft)"/>
  <path d="M0 845 C200 775 350 930 570 850 S950 760 1130 853 S1490 960 1920 810" fill="none" stroke="url(#wave)" stroke-width="8" opacity=".9"/>
  <path d="M0 882 C215 812 368 968 585 886 S950 795 1135 889 S1492 997 1920 846" fill="none" stroke="#f09a82" stroke-width="2" opacity=".38"/>

  <g transform="translate(118 148)">
    <g fill="#b8f1d5"><path d="M16 0 L20 12 L32 16 L20 20 L16 32 L12 20 L0 16 L12 12Z"/></g>
    <text x="48" y="26" fill="#f6faf5" font-family="Arial, Helvetica, sans-serif" font-size="34" font-weight="700" letter-spacing="-1">MotorSignal</text>
    <text x="0" y="202" fill="#f8faf6" font-family="Georgia, 'Times New Roman', serif" font-size="124" font-weight="600" letter-spacing="-5">Your movement.</text>
    <text x="0" y="326" fill="#ef765f" font-family="Georgia, 'Times New Roman', serif" font-size="124" font-style="italic" font-weight="600" letter-spacing="-5">Your data.</text>
    <text x="4" y="405" fill="#bed5ca" font-family="Arial, Helvetica, sans-serif" font-size="30" letter-spacing=".2">A private 15-second hand-motion check-in.</text>
    <g transform="translate(4 500)">
      <rect width="412" height="64" rx="32" fill="#285647" stroke="#5d937c" stroke-width="1"/>
      <circle cx="34" cy="32" r="8" fill="#9cf1c9"/>
      <text x="59" y="41" fill="#eafff2" font-family="Arial, Helvetica, sans-serif" font-size="22" font-weight="600">Raw video stays in your browser</text>
    </g>
  </g>

  <g transform="translate(1215 150)" filter="url(#shadow)">
    <circle cx="370" cy="400" r="360" fill="#12352b" stroke="#6fcaa2" stroke-opacity=".45" stroke-width="2"/>
    <circle cx="370" cy="400" r="300" fill="none" stroke="#9ce9ca" stroke-opacity=".18" stroke-width="2" stroke-dasharray="7 13"/>
    <circle cx="370" cy="400" r="234" fill="none" stroke="#9ce9ca" stroke-opacity=".16" stroke-width="2"/>
    <path d="M336 646 C301 583 306 495 318 432 L286 237 C282 204 301 181 325 184 C344 186 353 204 356 226 L381 373 L379 158 C379 127 398 108 422 112 C442 115 450 132 451 157 L459 365 L475 183 C478 151 499 135 521 140 C540 145 547 164 544 186 L524 384 L550 244 C556 217 577 204 597 213 C613 220 618 237 613 256 L569 436 C556 484 545 545 522 594 C495 650 454 682 402 690 C371 695 351 680 336 646Z" fill="#f1c7a4" stroke="#ffe3c8" stroke-width="4"/>
    <path d="M344 502 C390 474 440 465 520 476" fill="none" stroke="#c78e72" stroke-opacity=".54" stroke-width="4" stroke-linecap="round"/>
    <g fill="none" stroke="#a8f3d1" stroke-width="4" stroke-linecap="round" stroke-linejoin="round" opacity=".95">
      <path d="M328 625 L329 440 L310 245"/><path d="M329 440 L398 390 L392 162"/><path d="M398 390 L466 382 L490 193"/><path d="M466 382 L535 429 L571 252"/><path d="M398 390 L431 505 L492 586"/><path d="M329 440 L374 541 L431 505"/>
    </g>
    <g fill="#a8f3d1" stroke="#f4fff9" stroke-width="3">
      <circle cx="328" cy="625" r="10"/><circle cx="329" cy="440" r="10"/><circle cx="310" cy="245" r="10"/><circle cx="398" cy="390" r="10"/><circle cx="392" cy="162" r="10"/><circle cx="466" cy="382" r="10"/><circle cx="490" cy="193" r="10"/><circle cx="535" cy="429" r="10"/><circle cx="571" cy="252" r="10"/><circle cx="431" cy="505" r="10"/><circle cx="492" cy="586" r="10"/><circle cx="374" cy="541" r="10"/>
    </g>
    <g fill="#ef765f"><circle cx="328" cy="625" r="5"/><circle cx="392" cy="162" r="5"/><circle cx="490" cy="193" r="5"/><circle cx="571" cy="252" r="5"/></g>
  </g>

  <g transform="translate(118 945)">
    <line x1="0" y1="0" x2="260" y2="0" stroke="#6ccca0" stroke-width="3"/>
    <text x="0" y="48" fill="#9ccab6" font-family="Arial, Helvetica, sans-serif" font-size="22" font-weight="600" letter-spacing="2">BUILT WITH CODEX + GPT-5.6</text>
  </g>
</svg>
